grf
version=1
nRows=11
nColumns=46
inDegrees=yes
endheader
time	ground_force_1_vx	ground_force_1_vy	ground_force_1_vz	ground_force_1_px	ground_force_1_py	ground_force_1_pz	ground_moment_1_mx	ground_moment_1_my	ground_moment_1_mz	ground_force_2_vx	ground_force_2_vy	ground_force_2_vz	ground_force_2_px	ground_force_2_py	ground_force_2_pz	ground_moment_2_mx	ground_moment_2_my	ground_moment_2_mz	ground_force_3_vx	ground_force_3_vy	ground_force_3_vz	ground_force_3_px	ground_force_3_py	ground_force_3_pz	ground_moment_3_mx	ground_moment_3_my	ground_moment_3_mz	ground_force_4_vx	ground_force_4_vy	ground_force_4_vz	ground_force_4_px	ground_force_4_py	ground_force_4_pz	ground_moment_4_mx	ground_moment_4_my	ground_moment_4_mz	ground_force_5_vx	ground_force_5_vy	ground_force_5_vz	ground_force_5_px	ground_force_5_py	ground_force_5_pz	ground_moment_5_mx	ground_moment_5_my	ground_moment_5_mz
0.000000	0.000000	0.000000	0.000000	0.000000	0.000000	0.000000	0.000000	0.000000	0.000000	0.000000	0.000000	0.000000	0.000000	0.000000	0.000000	0.000000	0.000000	0.000000	0.000000	0.000000	0.000000	0.000000	0.000000	0.000000	0.000000	0.000000	0.000000	7.341051	517.610629	-128.855713	0.175755	0.000000	-0.896303	0.000000	3.523293	0.000000	-2.505114	516.276949	132.591181	0.208778	0.000000	-1.575043	-0.000000	-2.177317	-0.000000
0.000500	0.000000	0.000000	0.000000	0.000000	0.000000	0.000000	0.000000	0.000000	0.000000	0.000000	0.000000	0.000000	0.000000	0.000000	0.000000	0.000000	0.000000	0.000000	0.000000	0.000000	0.000000	0.000000	0.000000	0.000000	0.000000	0.000000	0.000000	7.327052	517.666822	-128.872977	0.175740	0.000000	-0.896322	0.000000	3.531239	0.000000	-2.499294	516.245246	132.622447	0.208789	0.000000	-1.575008	-0.000000	-2.173893	-0.000000
0.001000	0.000000	0.000000	0.000000	0.000000	0.000000	0.000000	0.000000	0.000000	0.000000	0.000000	0.000000	0.000000	0.000000	0.000000	0.000000	0.000000	0.000000	0.000000	0.000000	0.000000	0.000000	0.000000	0.000000	0.000000	0.000000	0.000000	0.000000	7.313206	517.722625	-128.890235	0.175725	0.000000	-0.896340	0.000000	3.539042	0.000000	-2.493294	516.213876	132.653377	0.208800	0.000000	-1.574974	-0.000000	-2.170397	-0.000000
0.001500	0.000000	0.000000	0.000000	0.000000	0.000000	0.000000	0.000000	0.000000	0.000000	0.000000	0.000000	0.000000	0.000000	0.000000	0.000000	0.000000	0.000000	0.000000	0.000000	0.000000	0.000000	0.000000	0.000000	0.000000	0.000000	0.000000	0.000000	7.299557	517.777900	-128.907443	0.175710	0.000000	-0.896358	0.000000	3.546676	0.000000	-2.487137	516.182940	132.683872	0.208811	0.000000	-1.574939	-0.000000	-2.166841	-0.000000
0.002000	0.000000	0.000000	0.000000	0.000000	0.000000	0.000000	0.000000	0.000000	0.000000	0.000000	0.000000	0.000000	0.000000	0.000000	0.000000	0.000000	0.000000	0.000000	0.000000	0.000000	0.000000	0.000000	0.000000	0.000000	0.000000	0.000000	0.000000	7.286148	517.832514	-128.924562	0.175695	0.000000	-0.896375	0.000000	3.554114	0.000000	-2.480838	516.152541	132.713843	0.208821	0.000000	-1.574905	-0.000000	-2.163237	-0.000000
0.002500	0.000000	0.000000	0.000000	0.000000	0.000000	0.000000	0.000000	0.000000	0.000000	0.000000	0.000000	0.000000	0.000000	0.000000	0.000000	0.000000	0.000000	0.000000	0.000000	0.000000	0.000000	0.000000	0.000000	0.000000	0.000000	0.000000	0.000000	7.273009	517.886350	-128.941559	0.175681	0.000000	-0.896392	0.000000	3.561332	0.000000	-2.474408	516.122775	132.743209	0.208831	0.000000	-1.574872	-0.000000	-2.159592	-0.000000
0.003000	0.000000	0.000000	0.000000	0.000000	0.000000	0.000000	0.000000	0.000000	0.000000	0.000000	0.000000	0.000000	0.000000	0.000000	0.000000	0.000000	0.000000	0.000000	0.000000	0.000000	0.000000	0.000000	0.000000	0.000000	0.000000	0.000000	0.000000	7.260166	517.939312	-128.958404	0.175667	0.000000	-0.896407	0.000000	3.568310	0.000000	-2.467855	516.093725	132.771899	0.208841	0.000000	-1.574839	-0.000000	-2.155915	-0.000000
0.003500	0.000000	0.000000	0.000000	0.000000	0.000000	0.000000	0.000000	0.000000	0.000000	0.000000	0.000000	0.000000	0.000000	0.000000	0.000000	0.000000	0.000000	0.000000	0.000000	0.000000	0.000000	0.000000	0.000000	0.000000	0.000000	0.000000	0.000000	7.247631	517.991337	-128.975075	0.175653	0.000000	-0.896422	0.000000	3.575028	0.000000	-2.461182	516.065456	132.799850	0.208850	0.000000	-1.574807	-0.000000	-2.152210	-0.000000
0.004000	0.000000	0.000000	0.000000	0.000000	0.000000	0.000000	0.000000	0.000000	0.000000	0.000000	0.000000	0.000000	0.000000	0.000000	0.000000	0.000000	0.000000	0.000000	0.000000	0.000000	0.000000	0.000000	0.000000	0.000000	0.000000	0.000000	0.000000	7.235415	518.042382	-128.991553	0.175639	0.000000	-0.896437	0.000000	3.581470	0.000000	-2.454398	516.038023	132.827012	0.208859	0.000000	-1.574775	-0.000000	-2.148483	-0.000000
0.004500	0.000000	0.000000	0.000000	0.000000	0.000000	0.000000	0.000000	0.000000	0.000000	0.000000	0.000000	0.000000	0.000000	0.000000	0.000000	0.000000	0.000000	0.000000	0.000000	0.000000	0.000000	0.000000	0.000000	0.000000	0.000000	0.000000	0.000000	7.223517	518.092420	-129.007823	0.175625	0.000000	-0.896450	-0.000000	3.587624	0.000000	-2.447513	516.011476	132.853345	0.208867	0.000000	-1.574744	-0.000000	-2.144739	-0.000000
0.005000	0.000000	0.000000	0.000000	0.000000	0.000000	0.000000	0.000000	0.000000	0.000000	0.000000	0.000000	0.000000	0.000000	0.000000	0.000000	0.000000	0.000000	0.000000	0.000000	0.000000	0.000000	0.000000	0.000000	0.000000	0.000000	0.000000	0.000000	7.211934	518.141421	-129.023870	0.175612	0.000000	-0.896463	-0.000000	3.593481	0.000000	-2.440544	515.985868	132.878813	0.208875	0.000000	-1.574714	-0.000000	-2.140982	-0.000000
